<mxfile host="app.diagrams.net" modified="2025-01-24T00:05:08.311Z" agent="Mozilla/5.0 (Windows NT 10.0; Win64; x64) AppleWebKit/537.36 (KHTML, like Gecko) Chrome/109.0.0.0 Safari/537.36" etag="1WjPMLvkFGuQ81bV2jwk" version="21.8.2" type="device">
  <diagram name="Seite-1" id="0nKzTVvZjCOzeFXMjTzh">
    <mxGraphModel dx="1422" dy="794" grid="1" gridSize="10" guides="1" tooltips="1" connect="1" arrows="1" fold="1" page="1" pageScale="1" pageWidth="850" pageHeight="1100" math="0" shadow="0">
      <root>
        <mxCell id="0" />
        <mxCell id="1" parent="0" />
        <mxCell id="e9cJx_HsgO1_bSqH21oT-1" value="Unternehmenszentrale" style="shape=umlActor;verticalLabelPosition=bottom;verticalAlign=top;html=1;outlineConnect=0;" vertex="1" parent="1">
          <mxGeometry x="120" y="240" width="30" height="60" as="geometry" />
        </mxCell>
        <mxCell id="e9cJx_HsgO1_bSqH21oT-2" value="System" style="shape=umlFrame;whiteSpace=wrap;html=1;" vertex="1" parent="1">
          <mxGeometry x="240" y="120" width="400" height="400" as="geometry" />
        </mxCell>
        <mxCell id="e9cJx_HsgO1_bSqH21oT-3" value="Performance-Bericht erstellen" style="ellipse;whiteSpace=wrap;html=1;" vertex="1" parent="e9cJx_HsgO1_bSqH21oT-2">
          <mxGeometry x="120" y="40" width="160" height="80" as="geometry" />
        </mxCell>
        <mxCell id="e9cJx_HsgO1_bSqH21oT-4" value="Leistungskennziffern definieren" style="ellipse;whiteSpace=wrap;html=1;" vertex="1" parent="e9cJx_HsgO1_bSqH21oT-2">
          <mxGeometry x="40" y="160" width="120" height="60" as="geometry" />
        </mxCell>
        <mxCell id="e9cJx_HsgO1_bSqH21oT-5" value="Leistungsdaten exportieren" style="ellipse;whiteSpace=wrap;html=1;" vertex="1" parent="e9cJx_HsgO1_bSqH21oT-2">
          <mxGeometry x="160" y="160" width="120" height="60" as="geometry" />
        </mxCell>
        <mxCell id="e9cJx_HsgO1_bSqH21oT-6" value="Daten in Reporting System importieren" style="ellipse;whiteSpace=wrap;html=1;" vertex="1" parent="e9cJx_HsgO1_bSqH21oT-2">
          <mxGeometry x="40" y="240" width="120" height="60" as="geometry" />
        </mxCell>
        <mxCell id="e9cJx_HsgO1_bSqH21oT-7" value="Auswertungen erstellen" style="ellipse;whiteSpace=wrap;html=1;" vertex="1" parent="e9cJx_HsgO1_bSqH21oT-2">
          <mxGeometry x="160" y="240" width="120" height="60" as="geometry" />
        </mxCell>
        <mxCell id="e9cJx_HsgO1_bSqH21oT-8" value="Dashboard erstellen" style="ellipse;whiteSpace=wrap;html=1;" vertex="1" parent="e9cJx_HsgO1_bSqH21oT-2">
          <mxGeometry x="100" y="320" width="120" height="60" as="geometry" />
        </mxCell>
        <mxCell id="e9cJx_HsgO1_bSqH21oT-9" value="" style="endArrow=none;html=1;rounded=0;" edge="1" parent="1" source="e9cJx_HsgO1_bSqH21oT-1" target="e9cJx_HsgO1_bSqH21oT-3">
          <mxGeometry width="50" height="50" relative="1" as="geometry">
            <mxPoint x="390" y="370" as="sourcePoint" />
            <mxPoint x="440" y="320" as="targetPoint" />
          </mxGeometry>
        </mxCell>
        <mxCell id="e9cJx_HsgO1_bSqH21oT-10" value="" style="endArrow=block;html=1;rounded=0;dashed=1;" edge="1" parent="1" source="e9cJx_HsgO1_bSqH21oT-3" target="e9cJx_HsgO1_bSqH21oT-4">
          <mxGeometry width="50" height="50" relative="1" as="geometry">
            <mxPoint x="390" y="370" as="sourcePoint" />
            <mxPoint x="440" y="320" as="targetPoint" />
          </mxGeometry>
        </mxCell>
        <mxCell id="e9cJx_HsgO1_bSqH21oT-11" value="" style="endArrow=block;html=1;rounded=0;dashed=1;" edge="1" parent="1" source="e9cJx_HsgO1_bSqH21oT-3" target="e9cJx_HsgO1_bSqH21oT-5">
          <mxGeometry width="50" height="50" relative="1" as="geometry">
            <mxPoint x="390" y="370" as="sourcePoint" />
            <mxPoint x="440" y="320" as="targetPoint" />
          </mxGeometry>
        </mxCell>
        <mxCell id="e9cJx_HsgO1_bSqH21oT-12" value="" style="endArrow=block;html=1;rounded=0;dashed=1;" edge="1" parent="1" source="e9cJx_HsgO1_bSqH21oT-3" target="e9cJx_HsgO1_bSqH21oT-6">
          <mxGeometry width="50" height="50" relative="1" as="geometry">
            <mxPoint x="390" y="370" as="sourcePoint" />
            <mxPoint x="440" y="320" as="targetPoint" />
          </mxGeometry>
        </mxCell>
        <mxCell id="e9cJx_HsgO1_bSqH21oT-13" value="" style="endArrow=block;html=1;rounded=0;dashed=1;" edge="1" parent="1" source="e9cJx_HsgO1_bSqH21oT-3" target="e9cJx_HsgO1_bSqH21oT-7">
          <mxGeometry width="50" height="50" relative="1" as="geometry">
            <mxPoint x="390" y="370" as="sourcePoint" />
            <mxPoint x="440" y="320" as="targetPoint" />
          </mxGeometry>
        </mxCell>
        <mxCell id="e9cJx_HsgO1_bSqH21oT-14" value="" style="endArrow=block;html=1;rounded=0;dashed=1;" edge="1" parent="1" source="e9cJx_HsgO1_bSqH21oT-3" target="e9cJx_HsgO1_bSqH21oT-8">
          <mxGeometry width="50" height="50" relative="1" as="geometry">
            <mxPoint x="390" y="370" as="sourcePoint" />
            <mxPoint x="440" y="320" as="targetPoint" />
          </mxGeometry>
        </mxCell>
      </root>
    </mxGraphModel>
  </diagram>
</mxfile>